<?xml version="1.0" encoding="UTF-8"?>
<svg id="_图层_2" data-name="图层 2" xmlns="http://www.w3.org/2000/svg" xmlns:xlink="http://www.w3.org/1999/xlink" viewBox="0 0 78.39 121.76">
  <defs>
    <style>
      .cls-1 {
        fill: url(#_未命名的渐变_7);
        stroke-width: 0px;
      }
    </style>
    <linearGradient id="_未命名的渐变_7" data-name="未命名的渐变 7" x1="-5.74" y1="7.07" x2="60.78" y2="118.34" gradientUnits="userSpaceOnUse">
      <stop offset="0" stop-color="#226dfb"/>
      <stop offset=".23" stop-color="#2c85fb"/>
      <stop offset=".51" stop-color="#369cfb"/>
      <stop offset=".77" stop-color="#3caafb"/>
      <stop offset="1" stop-color="#3faffb"/>
    </linearGradient>
  </defs>
  <g id="_图层_1-2" data-name="图层 1">
    <path class="cls-1" d="M78.06,77.11c-6.58.28-9.71,5.18-13.43,9.91-2.83,3.6-6.78,6.91-10.94,8.73-5.94,2.59-7.95,6.96-8.84,12.63-.47,2.95-.92,5.92-1.76,8.78-1.04,3.57-4.97,5.5-8.31,4.18-1.64-.65-2.97-2.13-4.63-2.66-1.42-.46-3.11-.09-5.12-1.14,1.23-.73,2.39-1.68,3.71-2.14,2.66-.92,5.5-1.33,8.1-2.37,3.24-1.29,5.18-6.93,3.27-9.34-2.35-2.96-5.39-2.55-7.86-.37-1.05.92-1.53,3.12-1.38,4.65.39,4.01-1.51,5.75-5.11,5.49-4.98-.36-10.68,2.17-15.23-3.76h13.89c3.23-9.07,3.14-8.97-3.44-15.16-1.84-1.73-2.94-4.23-4.47-6.3-1.46-1.99-2.67-4.49-4.64-5.74-8.12-5.15-9.4-13.35-7.43-21.05,2.21-8.6,6.61-16.76,10.87-24.67,3.01-5.6,3.92-11.28,3.19-17.23-.19-1.53-2.75-3.51-4.53-3.92-2.67-.61-5.62.14-8.45.04-1.83-.06-3.63-.61-5.53-.96C4.56,10.32,8.49,6.33,12.65,2.6c3.63-3.26,10.18-3.41,14.35-.66,3.8,2.51,6.26,9.72,4.93,14.83-1.84,7.04-4.11,13.97-5.62,21.08-2.44,11.45.33,13.41,10.28,16.5,9.84,3.05,20.29,4.47,28.5,11.63,1.41,1.23,3.63,1.89,5.55,2.08,5.21.51,8.92,2.06,7.42,9.06Z"/>
  </g>
</svg>